<svg xmlns="http://www.w3.org/2000/svg" width="22" height="22" fill="none"><mask id="b" fill="#fff"><path d="M11 22c6.075 0 11-4.925 11-11S17.075 0 11 0 0 4.925 0 11s4.925 11 11 11Z"/></mask><path fill="url(#a)" d="M11 22c6.075 0 11-4.925 11-11S17.075 0 11 0 0 4.925 0 11s4.925 11 11 11Z"/><path fill="#B5B5B5" d="M7 10.5a.5.5 0 0 0 0 1v-1Zm8.354.854a.5.5 0 0 0 0-.708l-3.182-3.182a.5.5 0 1 0-.708.708L14.293 11l-2.829 2.828a.5.5 0 1 0 .708.708l3.182-3.182ZM7 11.5h8v-1H7v1Zm14-.5c0 5.523-4.477 10-10 10v2c6.627 0 12-5.372 12-12h-2ZM11 1c5.523 0 10 4.477 10 10h2c0-6.627-5.373-12-12-12v2ZM1 11C1 5.477 5.477 1 11 1v-2C4.373-1-1 4.373-1 11h2Zm-2 0c0 6.628 5.373 12 12 12v-2C5.477 21 1 16.523 1 11h-2Z" mask="url(#b)"/><defs><linearGradient id="a" x1="11" x2="11" y1="0" y2="22" gradientUnits="userSpaceOnUse"><stop stop-color="#fff"/><stop offset="1" stop-color="#EEF6FF"/></linearGradient></defs></svg>